<svg id="Layer_1" data-name="Layer 1" xmlns="http://www.w3.org/2000/svg" viewBox="0 0 936 936"><defs><style>.cls-1{fill:#1f1a17;stroke:#231f20;stroke-miterlimit:10;}.cls-2{fill:#f6c315;}.cls-3{fill:#1b6734;}</style></defs><rect class="cls-1" x="8.5" y="4" width="900" height="918"/><path id="HL_1b6734" data-name="HL#1b6734" class="cls-2" d="M968,871.51v-743h0V32H32v9.65h0V968H968V871.51ZM788.25,788H211.75V217.94h0V212h576.5v59.38h0V728.62h0Z" transform="translate(-32 -32)"/><path id="FG_f6c315" data-name="FG#f6c315" class="cls-3" d="M104,104V896H896V104ZM860,860H140V147.42h0V140H860v74.23h0V785.77h0Z" transform="translate(-32 -32)"/><path id="BG_1f1a17" data-name="BG#1f1a17" class="cls-2" d="M758.61,470.16h0L529.84,241.39h0l-29.71-29.71h0l-29.73,29.74h0L211.68,500.13l3,3h0L499.87,788.32h0L788.32,499.87ZM500,607.45h0l-106.3-106.3h0l-1.1-1.1L489,403.63h0l11.09-11.08h0l11.07,11.07h0l85.26,85.26h0L607.45,500Z" transform="translate(-32 -32)"/></svg>