<svg id="Layer_1" data-name="Layer 1" xmlns="http://www.w3.org/2000/svg" viewBox="0 0 936 936"><defs><style>.cls-1{fill:#1f1a17;stroke:#231f20;stroke-miterlimit:10;}.cls-2{fill:#f6c315;}.cls-3{fill:#1b6734;}</style></defs><rect class="cls-1" x="148" y="157" width="634.5" height="639"/><path id="HL_1b6734" data-name="HL#1b6734" class="cls-2" d="M968,871.51v-743h0V32H32v9.65h0V968H968V871.51ZM788.25,788H211.75V217.94h0V212h576.5v59.38h0V728.62h0Z" transform="translate(-32 -32)"/><path id="FG_f6c315" data-name="FG#f6c315" class="cls-3" d="M104,104V896H896V104ZM860,860H140V147.42h0V140H860v74.23h0V785.77h0Z" transform="translate(-32 -32)"/><path id="BG_1f1a17" data-name="BG#1f1a17" class="cls-2" d="M759.86,470.66h0L531.09,241.89h0l-29.71-29.71h0l-29.73,29.74h0L212.93,500.63l3,3h0L501.12,788.82h0L789.57,500.37ZM501.2,608h0L394.9,501.65h0l-1.1-1.1,96.41-96.42h0l11.09-11.08h0l11.07,11.07h0l85.26,85.26h0l11.07,11.07Z" transform="translate(-32 -32)"/><polygon class="cls-3" points="393 22.72 393 14.5 357 14.5 357 164.5 393 164.5 393 157.68 393 22.72"/><rect class="cls-2" x="393" y="14.5" width="150" height="150"/><polygon class="cls-3" points="579 22.72 579 14.5 543 14.5 543 164.5 579 164.5 579 157.68 579 22.72"/><polygon class="cls-3" points="393 778.72 393 770.5 357 770.5 357 920.5 393 920.5 393 913.68 393 778.72"/><rect class="cls-2" x="393" y="770.5" width="150" height="150"/><polygon class="cls-3" points="579 778.72 579 770.5 543 770.5 543 920.5 579 920.5 579 913.68 579 778.72"/><polygon class="cls-3" points="156.28 393 164.5 393 164.5 357 14.5 357 14.5 393 21.32 393 156.28 393"/><rect class="cls-2" x="46.5" y="425" width="150" height="150" transform="translate(589.5 346.5) rotate(90)"/><polygon class="cls-3" points="156.28 579 164.5 579 164.5 543 14.5 543 14.5 579 21.32 579 156.28 579"/><polygon class="cls-3" points="912.28 393 920.5 393 920.5 357 770.5 357 770.5 393 777.32 393 912.28 393"/><rect class="cls-2" x="802.5" y="425" width="150" height="150" transform="translate(1345.5 -409.5) rotate(90)"/><polygon class="cls-3" points="912.28 579 920.5 579 920.5 543 770.5 543 770.5 579 777.32 579 912.28 579"/><path class="cls-1" d="M159.71,547.14q-17.57-.9-54.7-.91-12.93,0-21,.77c-1.31.1-2.28.14-2.88.14-1.79,0-2.68-.7-2.68-2.1a1.44,1.44,0,0,1,.71-1.38,14,14,0,0,1,3.44-.81,13.25,13.25,0,0,0,6.68-2.56,10.56,10.56,0,0,0,3.27-5.78q.94-3.84,1.09-19.58t.14-37.43q0-8.67-1.26-12.57a11.41,11.41,0,0,0-3.62-5.71,11.84,11.84,0,0,0-6.65-2c-2-.09-3-.84-3-2.25s1.14-2.1,3.44-2.1l23.35.7q5.4,0,15.11-.55c2.35-.1,3.94-.15,4.78-.15,2,0,3,.68,3,2a1.63,1.63,0,0,1-.95,1.59,22.55,22.55,0,0,1-4.75,1q-4.71.63-6.64,2.39t-2.6,6.13q-.68,4.37-.67,19.58v42.75q.06,9.85,1.76,11.72c1.12,1.25,3.26,1.87,6.4,1.87q11.53,0,17.16-1.79a28.7,28.7,0,0,0,10.73-6.51q5.1-4.71,10.94-15.82c.79-1.5,1.61-2.25,2.45-2.25q1.89,0,1.89,2Q164.57,522.18,159.71,547.14Z" transform="translate(-32 -32)"/><path class="cls-1" d="M879.65,559.63q-3.87,0-31.73-.52l-19.33.08L817.25,559c-2.7,0-4.38-.16-5-.48s-1-1-1-2.16q0-2.55,3.78-2.55,7.2,0,10.54-2.46t4.22-9.06q.88-6.6,1.63-26.3t.74-36.24q0-23.31-2.24-28.63t-11.11-5.76c-2.11-.18-3.17-1.06-3.17-2.64s.94-2.37,2.81-2.37q1.68,0,11.34,1,10.72,1,14.94,1l33.31-.7A83.6,83.6,0,0,1,910.15,448a51.79,51.79,0,0,1,24.57,20.85,63.28,63.28,0,0,1,3.78,58.05,52.5,52.5,0,0,1-15.43,19.75q-10.11,8-20,10.51A96.37,96.37,0,0,1,879.65,559.63Zm-6-6.41q18.45,0,29.18-12.93t10.72-36.95q0-24.36-11.56-40.15T869.19,447.4q-7.29,0-8.74.83a3.89,3.89,0,0,0-1.8,1.72q-.36.89-1.06,19.7l-1.05,29.82q-.27,11-.27,27.27,0,12.22,1.06,16.84a11.36,11.36,0,0,0,4.66,7.13Q865.59,553.21,873.68,553.22Z" transform="translate(-32 -32)"/><path class="cls-1" d="M436.66,80.19l11.39.25,17.48-.25c2.08,0,3.13.41,3.13,1.25,0,.62-.57,1-1.69,1.18q-6.95.88-8.66,5t-1.72,30.5q0,9.69.5,21.82t1.13,14.5a7.46,7.46,0,0,0,2.37,3.87q1.76,1.5,6.5,2.13c1,.12,1.57.52,1.57,1.18s-.48,1.13-1.44,1.13l-15.53-.13-13.22.19c-1.46,0-2.19-.41-2.19-1.25s.58-1.31,1.75-1.31q5.82-.12,6.81-3.87t1-23.94q0-19.5-.34-31.56c-.23-8-.91-13-2-14.76s-3.25-2.91-6.38-3.37c-1.16-.21-1.75-.69-1.75-1.44S435.78,80.19,436.66,80.19Z" transform="translate(-32 -32)"/><path class="cls-1" d="M484.66,80.19l11.39.25,17.48-.25c2.08,0,3.13.41,3.13,1.25,0,.62-.57,1-1.69,1.18q-6.95.88-8.66,5t-1.72,30.5q0,9.69.5,21.82t1.13,14.5a7.46,7.46,0,0,0,2.37,3.87q1.76,1.5,6.5,2.13c1,.12,1.57.52,1.57,1.18s-.48,1.13-1.44,1.13l-15.53-.13-13.22.19c-1.46,0-2.19-.41-2.19-1.25s.58-1.31,1.75-1.31q5.82-.12,6.81-3.87t1-23.94q0-19.5-.34-31.56c-.23-8-.91-13-2-14.76s-3.25-2.91-6.38-3.37c-1.16-.21-1.75-.69-1.75-1.44S483.78,80.19,484.66,80.19Z" transform="translate(-32 -32)"/><path class="cls-1" d="M532.66,80.19l11.39.25,17.48-.25c2.08,0,3.13.41,3.13,1.25,0,.62-.57,1-1.69,1.18q-6.94.88-8.66,5t-1.72,30.5q0,9.69.5,21.82t1.13,14.5a7.46,7.46,0,0,0,2.37,3.87q1.75,1.5,6.5,2.13c1,.12,1.57.52,1.57,1.18s-.48,1.13-1.44,1.13l-15.53-.13-13.22.19c-1.46,0-2.19-.41-2.19-1.25s.58-1.31,1.75-1.31q5.82-.12,6.81-3.87t1-23.94q0-19.5-.34-31.56c-.23-8-.91-13-2-14.76s-3.25-2.91-6.38-3.37c-1.16-.21-1.75-.69-1.75-1.44S531.78,80.19,532.66,80.19Z" transform="translate(-32 -32)"/><path class="cls-1" d="M481.06,919.41h-3.68q-2.94-9.43-9.26-25.75l-11.81-30.44q-5.49-14.13-7.65-17.63a14.27,14.27,0,0,0-4.22-4.75,13.61,13.61,0,0,0-5.82-1.56c-1-.08-1.56-.46-1.56-1.12s.52-1.19,1.56-1.19h32.76c2,0,3.06.35,3.06,1.06,0,.92-.67,1.38-2,1.38q-8.25,0-8.25,7.06a30.39,30.39,0,0,0,.75,5.37,75,75,0,0,0,2.59,9.07q1.85,5.37,7.94,22t7.78,20.47l13.37-37.07q5.76-15.75,5.76-19.81,0-6.56-8.13-7.25c-1.08-.08-1.63-.48-1.63-1.19a.87.87,0,0,1,.6-.9,14.65,14.65,0,0,1,3.47-.22h20.87a21.11,21.11,0,0,1,3.41.15.82.82,0,0,1,.59.91c0,.75-.81,1.25-2.44,1.5a11,11,0,0,0-7,3.41,41.43,41.43,0,0,0-4.5,6.5q-2.14,3.78-11.53,30.09Q492.75,888.79,481.06,919.41Z" transform="translate(-32 -32)"/><path class="cls-1" d="M530.94,835.59l11.4.25,17.47-.25c2.08,0,3.13.42,3.13,1.25,0,.63-.56,1-1.69,1.19q-6.94.88-8.66,5t-1.71,30.5q0,9.69.5,21.81t1.12,14.5a7.46,7.46,0,0,0,2.38,3.88q1.74,1.5,6.5,2.12c1,.13,1.56.53,1.56,1.19s-.48,1.13-1.44,1.13L546,918l-13.22.19c-1.46,0-2.19-.42-2.19-1.25s.59-1.31,1.75-1.31q5.82-.13,6.81-3.88t1-23.94q0-19.5-.34-31.56t-2-14.75q-1.69-2.68-6.37-3.37c-1.17-.21-1.76-.69-1.76-1.44S530.06,835.59,530.94,835.59Z" transform="translate(-32 -32)"/></svg>